<svg xmlns="http://www.w3.org/2000/svg" width="94.871" height="32" viewBox="0 0 94.871 32"><defs><style>.a,.c{fill:#989898;}.a{font-size:14px;font-family:Muli;}.b{font-family:Muli-Bold, Muli;font-weight:700;}.c{fill-rule:evenodd;}</style></defs><g transform="translate(-183 -54.154)"><text class="a" transform="translate(212.871 70.154)"><tspan x="0" y="0">Ambiente</tspan><tspan class="b"><tspan x="0" y="12">seguro</tspan></tspan></text><g transform="translate(-652 -525.846)"><g transform="translate(835 582)"><path class="c" d="M21.369,14.245H9.124a1.749,1.749,0,0,0-1.749,1.749v8.747A1.749,1.749,0,0,0,9.124,26.49H21.369a1.749,1.749,0,0,0,1.749-1.749V15.994A1.749,1.749,0,0,0,21.369,14.245ZM9.124,12.5a3.5,3.5,0,0,0-3.5,3.5v8.747a3.5,3.5,0,0,0,3.5,3.5H21.369a3.5,3.5,0,0,0,3.5-3.5V15.994a3.5,3.5,0,0,0-3.5-3.5Zm0-5.248a6.123,6.123,0,0,1,12.245,0V12.5H19.62V7.248a4.373,4.373,0,0,0-8.747,0V12.5H9.124Z" transform="translate(-5.625 -1.125)"/></g></g></g></svg>